<svg xmlns="http://www.w3.org/2000/svg" version="1.1" xmlns:xlink="http://www.w3.org/1999/xlink" xmlns:svgjs="http://svgjs.com/svgjs" width="1440" height="560" preserveAspectRatio="none" viewBox="0 0 1440 560"><g mask="url(&quot;#SvgjsMask5362&quot;)" fill="none"><rect width="1440" height="560" x="0" y="0" fill="url(#SvgjsRadialGradient5363)"></rect><path d="M236 192.83L318.27 240.33L318.27 335.33L236 382.83L153.72 335.33L153.72 240.33zM318.27 335.33L400.55 382.83L400.55 477.83L318.27 525.33L236 477.83L236 382.83zM400.55 -92.17L482.82 -44.67L482.82 50.33L400.55 97.83L318.27 50.33L318.27 -44.67zM482.82 50.33L565.1 97.83L565.1 192.83L482.82 240.33L400.55 192.83L400.55 97.83zM565.1 -92.17L647.37 -44.67L647.37 50.33L565.1 97.83L482.82 50.33L482.82 -44.67zM647.37 50.33L729.65 97.83L729.65 192.83L647.37 240.33L565.1 192.83L565.1 97.83zM647.37 335.33L729.65 382.83L729.65 477.83L647.37 525.33L565.1 477.83L565.1 382.83zM565.1 477.83L647.37 525.33L647.37 620.33L565.1 667.83L482.82 620.33L482.82 525.33zM729.65 -92.17L811.92 -44.67L811.92 50.33L729.65 97.83L647.37 50.33L647.37 -44.67zM729.65 192.83L811.92 240.33L811.92 335.33L729.65 382.83L647.37 335.33L647.37 240.33zM1141.02 50.33L1223.3 97.83L1223.3 192.83L1141.02 240.33L1058.75 192.83L1058.75 97.83zM1058.75 477.83L1141.02 525.33L1141.02 620.33L1058.75 667.83L976.47 620.33L976.47 525.33zM1305.57 50.33L1387.85 97.83L1387.85 192.83L1305.57 240.33L1223.3 192.83L1223.3 97.83zM1305.57 335.33L1387.85 382.83L1387.85 477.83L1305.57 525.33L1223.3 477.83L1223.3 382.83zM1223.3 477.83L1305.57 525.33L1305.57 620.33L1223.3 667.83L1141.02 620.33L1141.02 525.33zM1387.85 -92.17L1470.12 -44.67L1470.12 50.33L1387.85 97.83L1305.57 50.33L1305.57 -44.67zM1470.12 50.33L1552.4 97.83L1552.4 192.83L1470.12 240.33L1387.85 192.83L1387.85 97.83zM1387.85 192.83L1470.12 240.33L1470.12 335.33L1387.85 382.83L1305.57 335.33L1305.57 240.33z" stroke="url(#SvgjsRadialGradient5364)" stroke-width="2"></path><path d="M226.5 192.83 a9.5 9.5 0 1 0 19 0 a9.5 9.5 0 1 0 -19 0zM308.77 240.33 a9.5 9.5 0 1 0 19 0 a9.5 9.5 0 1 0 -19 0zM308.77 335.33 a9.5 9.5 0 1 0 19 0 a9.5 9.5 0 1 0 -19 0zM226.5 382.83 a9.5 9.5 0 1 0 19 0 a9.5 9.5 0 1 0 -19 0zM144.22 335.33 a9.5 9.5 0 1 0 19 0 a9.5 9.5 0 1 0 -19 0zM144.22 240.33 a9.5 9.5 0 1 0 19 0 a9.5 9.5 0 1 0 -19 0zM391.05 382.83 a9.5 9.5 0 1 0 19 0 a9.5 9.5 0 1 0 -19 0zM391.05 477.83 a9.5 9.5 0 1 0 19 0 a9.5 9.5 0 1 0 -19 0zM308.77 525.33 a9.5 9.5 0 1 0 19 0 a9.5 9.5 0 1 0 -19 0zM226.5 477.83 a9.5 9.5 0 1 0 19 0 a9.5 9.5 0 1 0 -19 0zM391.05 -92.17 a9.5 9.5 0 1 0 19 0 a9.5 9.5 0 1 0 -19 0zM473.32 -44.67 a9.5 9.5 0 1 0 19 0 a9.5 9.5 0 1 0 -19 0zM473.32 50.33 a9.5 9.5 0 1 0 19 0 a9.5 9.5 0 1 0 -19 0zM391.05 97.83 a9.5 9.5 0 1 0 19 0 a9.5 9.5 0 1 0 -19 0zM308.77 50.33 a9.5 9.5 0 1 0 19 0 a9.5 9.5 0 1 0 -19 0zM308.77 -44.67 a9.5 9.5 0 1 0 19 0 a9.5 9.5 0 1 0 -19 0zM555.6 97.83 a9.5 9.5 0 1 0 19 0 a9.5 9.5 0 1 0 -19 0zM555.6 192.83 a9.5 9.5 0 1 0 19 0 a9.5 9.5 0 1 0 -19 0zM473.32 240.33 a9.5 9.5 0 1 0 19 0 a9.5 9.5 0 1 0 -19 0zM391.05 192.83 a9.5 9.5 0 1 0 19 0 a9.5 9.5 0 1 0 -19 0zM555.6 -92.17 a9.5 9.5 0 1 0 19 0 a9.5 9.5 0 1 0 -19 0zM637.87 -44.67 a9.5 9.5 0 1 0 19 0 a9.5 9.5 0 1 0 -19 0zM637.87 50.33 a9.5 9.5 0 1 0 19 0 a9.5 9.5 0 1 0 -19 0zM720.15 97.83 a9.5 9.5 0 1 0 19 0 a9.5 9.5 0 1 0 -19 0zM720.15 192.83 a9.5 9.5 0 1 0 19 0 a9.5 9.5 0 1 0 -19 0zM637.87 240.33 a9.5 9.5 0 1 0 19 0 a9.5 9.5 0 1 0 -19 0zM637.87 335.33 a9.5 9.5 0 1 0 19 0 a9.5 9.5 0 1 0 -19 0zM720.15 382.83 a9.5 9.5 0 1 0 19 0 a9.5 9.5 0 1 0 -19 0zM720.15 477.83 a9.5 9.5 0 1 0 19 0 a9.5 9.5 0 1 0 -19 0zM637.87 525.33 a9.5 9.5 0 1 0 19 0 a9.5 9.5 0 1 0 -19 0zM555.6 477.83 a9.5 9.5 0 1 0 19 0 a9.5 9.5 0 1 0 -19 0zM555.6 382.83 a9.5 9.5 0 1 0 19 0 a9.5 9.5 0 1 0 -19 0zM637.87 620.33 a9.5 9.5 0 1 0 19 0 a9.5 9.5 0 1 0 -19 0zM555.6 667.83 a9.5 9.5 0 1 0 19 0 a9.5 9.5 0 1 0 -19 0zM473.32 620.33 a9.5 9.5 0 1 0 19 0 a9.5 9.5 0 1 0 -19 0zM473.32 525.33 a9.5 9.5 0 1 0 19 0 a9.5 9.5 0 1 0 -19 0zM720.15 -92.17 a9.5 9.5 0 1 0 19 0 a9.5 9.5 0 1 0 -19 0zM802.42 -44.67 a9.5 9.5 0 1 0 19 0 a9.5 9.5 0 1 0 -19 0zM802.42 50.33 a9.5 9.5 0 1 0 19 0 a9.5 9.5 0 1 0 -19 0zM802.42 240.33 a9.5 9.5 0 1 0 19 0 a9.5 9.5 0 1 0 -19 0zM802.42 335.33 a9.5 9.5 0 1 0 19 0 a9.5 9.5 0 1 0 -19 0zM1131.52 50.33 a9.5 9.5 0 1 0 19 0 a9.5 9.5 0 1 0 -19 0zM1213.8 97.83 a9.5 9.5 0 1 0 19 0 a9.5 9.5 0 1 0 -19 0zM1213.8 192.83 a9.5 9.5 0 1 0 19 0 a9.5 9.5 0 1 0 -19 0zM1131.52 240.33 a9.5 9.5 0 1 0 19 0 a9.5 9.5 0 1 0 -19 0zM1049.25 192.83 a9.5 9.5 0 1 0 19 0 a9.5 9.5 0 1 0 -19 0zM1049.25 97.83 a9.5 9.5 0 1 0 19 0 a9.5 9.5 0 1 0 -19 0zM1049.25 477.83 a9.5 9.5 0 1 0 19 0 a9.5 9.5 0 1 0 -19 0zM1131.52 525.33 a9.5 9.5 0 1 0 19 0 a9.5 9.5 0 1 0 -19 0zM1131.52 620.33 a9.5 9.5 0 1 0 19 0 a9.5 9.5 0 1 0 -19 0zM1049.25 667.83 a9.5 9.5 0 1 0 19 0 a9.5 9.5 0 1 0 -19 0zM966.97 620.33 a9.5 9.5 0 1 0 19 0 a9.5 9.5 0 1 0 -19 0zM966.97 525.33 a9.5 9.5 0 1 0 19 0 a9.5 9.5 0 1 0 -19 0zM1296.07 50.33 a9.5 9.5 0 1 0 19 0 a9.5 9.5 0 1 0 -19 0zM1378.35 97.83 a9.5 9.5 0 1 0 19 0 a9.5 9.5 0 1 0 -19 0zM1378.35 192.83 a9.5 9.5 0 1 0 19 0 a9.5 9.5 0 1 0 -19 0zM1296.07 240.33 a9.5 9.5 0 1 0 19 0 a9.5 9.5 0 1 0 -19 0zM1296.07 335.33 a9.5 9.5 0 1 0 19 0 a9.5 9.5 0 1 0 -19 0zM1378.35 382.83 a9.5 9.5 0 1 0 19 0 a9.5 9.5 0 1 0 -19 0zM1378.35 477.83 a9.5 9.5 0 1 0 19 0 a9.5 9.5 0 1 0 -19 0zM1296.07 525.33 a9.5 9.5 0 1 0 19 0 a9.5 9.5 0 1 0 -19 0zM1213.8 477.83 a9.5 9.5 0 1 0 19 0 a9.5 9.5 0 1 0 -19 0zM1213.8 382.83 a9.5 9.5 0 1 0 19 0 a9.5 9.5 0 1 0 -19 0zM1296.07 620.33 a9.5 9.5 0 1 0 19 0 a9.5 9.5 0 1 0 -19 0zM1213.8 667.83 a9.5 9.5 0 1 0 19 0 a9.5 9.5 0 1 0 -19 0zM1378.35 -92.17 a9.5 9.5 0 1 0 19 0 a9.5 9.5 0 1 0 -19 0zM1460.62 -44.67 a9.5 9.5 0 1 0 19 0 a9.5 9.5 0 1 0 -19 0zM1460.62 50.33 a9.5 9.5 0 1 0 19 0 a9.5 9.5 0 1 0 -19 0zM1296.07 -44.67 a9.5 9.5 0 1 0 19 0 a9.5 9.5 0 1 0 -19 0zM1542.9 97.83 a9.5 9.5 0 1 0 19 0 a9.5 9.5 0 1 0 -19 0zM1542.9 192.83 a9.5 9.5 0 1 0 19 0 a9.5 9.5 0 1 0 -19 0zM1460.62 240.33 a9.5 9.5 0 1 0 19 0 a9.5 9.5 0 1 0 -19 0zM1460.62 335.33 a9.5 9.5 0 1 0 19 0 a9.5 9.5 0 1 0 -19 0z" fill="url(#SvgjsRadialGradient5364)"></path><path d="M20.4 151.72L68.9 179.72L68.9 235.72L20.4 263.72L-28.1 235.72L-28.1 179.72zM165.9 67.72L214.4 95.72L214.4 151.72L165.9 179.72L117.4 151.72L117.4 95.72zM214.4 319.72L262.89 347.72L262.89 403.72L214.4 431.72L165.9 403.72L165.9 347.72zM311.39 151.72L359.89 179.72L359.89 235.72L311.39 263.72L262.89 235.72L262.89 179.72zM311.39 319.72L359.89 347.72L359.89 403.72L311.39 431.72L262.89 403.72L262.89 347.72zM408.39 -16.28L456.89 11.72L456.89 67.72L408.39 95.72L359.89 67.72L359.89 11.72zM456.89 67.72L505.39 95.72L505.39 151.72L456.89 179.72L408.39 151.72L408.39 95.72zM456.89 403.72L505.39 431.72L505.39 487.72L456.89 515.72L408.39 487.72L408.39 431.72zM408.39 487.72L456.89 515.72L456.89 571.72L408.39 599.72L359.89 571.72L359.89 515.72zM456.89 571.72L505.39 599.72L505.39 655.72L456.89 683.72L408.39 655.72L408.39 599.72zM505.39 -16.28L553.89 11.72L553.89 67.72L505.39 95.72L456.89 67.72L456.89 11.72zM553.89 67.72L602.39 95.72L602.39 151.72L553.89 179.72L505.39 151.72L505.39 95.72zM650.88 67.72L699.38 95.72L699.38 151.72L650.88 179.72L602.39 151.72L602.39 95.72zM602.39 319.72L650.88 347.72L650.88 403.72L602.39 431.72L553.89 403.72L553.89 347.72zM844.88 67.72L893.38 95.72L893.38 151.72L844.88 179.72L796.38 151.72L796.38 95.72zM844.88 403.72L893.38 431.72L893.38 487.72L844.88 515.72L796.38 487.72L796.38 431.72zM796.38 487.72L844.88 515.72L844.88 571.72L796.38 599.72L747.88 571.72L747.88 515.72zM1038.87 67.72L1087.37 95.72L1087.37 151.72L1038.87 179.72L990.38 151.72L990.38 95.72zM990.38 151.72L1038.87 179.72L1038.87 235.72L990.38 263.72L941.88 235.72L941.88 179.72zM1038.87 571.72L1087.37 599.72L1087.37 655.72L1038.87 683.72L990.38 655.72L990.38 599.72zM1135.87 235.72L1184.37 263.72L1184.37 319.72L1135.87 347.72L1087.37 319.72L1087.37 263.72zM1087.37 487.72L1135.87 515.72L1135.87 571.72L1087.37 599.72L1038.87 571.72L1038.87 515.72zM1135.87 571.72L1184.37 599.72L1184.37 655.72L1135.87 683.72L1087.37 655.72L1087.37 599.72zM1184.37 319.72L1232.87 347.72L1232.87 403.72L1184.37 431.72L1135.87 403.72L1135.87 347.72zM1184.37 487.72L1232.87 515.72L1232.87 571.72L1184.37 599.72L1135.87 571.72L1135.87 515.72zM1281.37 319.72L1329.87 347.72L1329.87 403.72L1281.37 431.72L1232.87 403.72L1232.87 347.72zM1281.37 487.72L1329.87 515.72L1329.87 571.72L1281.37 599.72L1232.87 571.72L1232.87 515.72zM1378.37 319.72L1426.87 347.72L1426.87 403.72L1378.37 431.72L1329.87 403.72L1329.87 347.72z" stroke="rgba(6, 80, 156, 0.93)" stroke-width="2"></path></g><defs><mask id="SvgjsMask5362"><rect width="1440" height="560" fill="#ffffff"></rect></mask><radialGradient cx="0%" cy="0%" r="1545.06" gradientUnits="userSpaceOnUse" id="SvgjsRadialGradient5363"><stop stop-color="#0e2a47" offset="0"></stop><stop stop-color="#00459e" offset="1"></stop></radialGradient><radialGradient cx="720" cy="280" r="772.53" gradientUnits="userSpaceOnUse" id="SvgjsRadialGradient5364"><stop stop-color="rgba(147, 0, 120, 0.66)" offset="0"></stop><stop stop-color="rgba(248, 248, 248, 0.49)" offset="1"></stop></radialGradient></defs></svg>